<?xml version="1.0" encoding="UTF-8" standalone="no"?>
<!DOCTYPE svg PUBLIC "-//W3C//DTD SVG 1.1//EN" "http://www.w3.org/Graphics/SVG/1.1/DTD/svg11.dtd">
<svg width="100%" height="100%" viewBox="0 0 100 100" version="1.1" xmlns="http://www.w3.org/2000/svg" xmlns:xlink="http://www.w3.org/1999/xlink" xml:space="preserve" xmlns:serif="http://www.serif.com/" style="fill-rule:evenodd;clip-rule:evenodd;stroke-linejoin:round;stroke-miterlimit:2;">
    <g transform="matrix(0.464669,0,0,0.464669,80.855641,13.697045)">
        <path d="M0,156.254C-5.513,151.926 -11.407,148.149 -17.61,144.998L-17.61,68.139L8.356,81.947L8.356,148.295C5.721,151.101 2.932,153.758 0,156.254M-72.569,180.529L-72.569,138.501C-70.519,138.377 -68.465,138.292 -66.403,138.292C-64.342,138.292 -62.288,138.377 -60.238,138.501L-60.238,180.529C-62.28,180.651 -64.332,180.731 -66.403,180.731C-68.475,180.731 -70.527,180.651 -72.569,180.529M-141.165,148.293L-141.165,81.947L-115.197,68.137L-115.197,144.998C-121.399,148.149 -127.294,151.926 -132.807,156.254C-135.74,153.757 -138.53,151.1 -141.165,148.293M-115.197,168.367C-119.985,165.768 -124.531,162.782 -128.823,159.481C-124.509,156.173 -119.95,153.231 -115.197,150.664L-115.197,168.367ZM-110.198,148.136C-99.935,143.298 -88.899,140.175 -77.568,138.928L-77.568,180.113C-89.125,178.856 -100.109,175.674 -110.198,170.892L-110.198,148.136ZM-60.238,133.493C-62.288,133.375 -64.342,133.293 -66.403,133.293C-68.464,133.293 -70.519,133.375 -72.569,133.493L-72.569,97.541C-72.569,94.044 -69.955,91.062 -66.738,90.894C-65.032,90.791 -63.401,91.403 -62.161,92.577C-60.921,93.753 -60.238,95.342 -60.238,97.051L-60.238,133.493ZM-55.239,133.902L-55.239,97.051C-55.239,94.002 -56.508,91.05 -58.72,88.951C-60.963,86.824 -63.86,85.74 -67.001,85.902C-72.925,86.212 -77.568,91.325 -77.568,97.541L-77.568,133.902C-88.859,135.086 -99.879,138.043 -110.198,142.635L-110.198,49.897L-66.403,26.608L-22.609,49.897L-22.609,142.635C-32.928,138.043 -43.948,135.086 -55.239,133.902M-17.61,150.664C-12.857,153.231 -8.297,156.173 -3.984,159.481C-8.276,162.782 -12.822,165.768 -17.61,168.367L-17.61,150.664ZM-22.609,170.892C-32.697,175.674 -43.682,178.856 -55.239,180.113L-55.239,138.928C-43.908,140.175 -32.872,143.298 -22.609,148.136L-22.609,170.892ZM-66.403,-24.477C-9.826,-24.477 36.201,21.551 36.201,78.127C36.201,102.524 27.628,124.947 13.355,142.576L13.355,80.444C13.355,79.52 12.844,78.671 12.029,78.238L-17.61,62.476L-17.61,48.396C-17.61,47.472 -18.12,46.622 -18.936,46.189L-65.229,21.57C-65.967,21.18 -66.84,21.18 -67.578,21.57L-113.871,46.189C-114.686,46.622 -115.197,47.472 -115.197,48.396L-115.197,62.476L-144.839,78.238C-145.654,78.671 -146.164,79.52 -146.164,80.444L-146.164,142.573C-160.436,124.944 -169.008,102.522 -169.008,78.127C-169.008,21.551 -122.981,-24.477 -66.403,-24.477M12.869,150.801C30.449,131.64 41.2,106.118 41.2,78.127C41.2,18.795 -7.071,-29.476 -66.403,-29.476C-125.736,-29.476 -174.007,18.795 -174.007,78.127C-174.007,106.13 -163.246,131.662 -145.653,150.825C-145.515,151.015 -145.362,151.18 -145.176,151.324C-136.329,160.839 -125.789,168.751 -114.034,174.579C-113.859,174.694 -113.684,174.795 -113.482,174.863C-101.753,180.594 -88.832,184.231 -75.204,185.34C-75.157,185.343 -75.117,185.368 -75.069,185.368C-75.047,185.368 -75.029,185.356 -75.007,185.356C-72.165,185.582 -69.302,185.73 -66.403,185.73C-63.505,185.73 -60.641,185.582 -57.8,185.356C-57.778,185.356 -57.76,185.368 -57.738,185.368C-57.69,185.368 -57.65,185.343 -57.603,185.34C-43.93,184.227 -30.97,180.568 -19.212,174.804C-19.133,174.774 -19.066,174.73 -18.992,174.692C-7.162,168.859 3.442,160.917 12.338,151.358C12.547,151.199 12.719,151.016 12.869,150.801" style="fill:rgb(37,70,69);fill-rule:nonzero;"/>
    </g>
    <g transform="matrix(0.464669,0,0,0.464669,50.000046,37.646591)">
        <path d="M0,12.331C-3.4,12.331 -6.166,9.565 -6.166,6.165C-6.166,2.765 -3.4,0 0,0C3.4,0 6.166,2.765 6.166,6.165C6.166,9.565 3.4,12.331 0,12.331M0,-4.999C-6.156,-4.999 -11.165,0.009 -11.165,6.165C-11.165,12.321 -6.156,17.33 0,17.33C6.156,17.33 11.165,12.321 11.165,6.165C11.165,0.009 6.156,-4.999 0,-4.999" style="fill:rgb(37,70,69);fill-rule:nonzero;"/>
    </g>
</svg>
